<svg height="512" viewBox="0 0 512 512" width="512" xmlns="http://www.w3.org/2000/svg"><g id="Fill_out_line" data-name="Fill out line"><path d="m392 24-8 48 16 104 32 48-56-8-224 48-48 24 8-48-24-112-24-40 56 8 224-48z" fill="#d4e4f0"/><path d="m376 256-24 32.78-48-8.78v-24h-32l-16-40-24-8 24-40v-32l2.5-10.5h86.23l23.27 90.5z" fill="#fdc5ca"/><path d="m256 136h56l16 48 40 32-8-112h-136a32 32 0 0 0 32 32z" fill="#ba8b5d"/><path d="m184 336-16 32-32-48-11.79-2.95-20.21-5.05 32-24-16-8 7.73-11.59 8.27-12.41 24 24-8 24z" fill="#fdc5ca"/><path d="m496 309.33v186.67h-480v-116l72-36 64 24 10.52-12.63 29.48-35.37 16-40 48 16 8 5.33 16 10.67 58.29 38.86 125.71-62.86z" fill="#d4e4f0"/><path d="m432 304-39.87012 19.94-53.83988 26.92-40.94995-27.3-17.34005-11.56 24-32 72-24 6.78 2.71a94.13232 94.13232 0 0 1 49.22 45.29z" fill="#529ddf"/><path d="m323.26748 299.09878-35.26748 52.90122 64 40 26.268-42.68556c16.49483-26.80404-2.78942-61.31444-34.26218-61.31444h-.00008a24.92428 24.92428 0 0 0 -20.73826 11.09878z" fill="#529ddf"/><g fill="#fdc5ca"><path d="m312 168 4.68629-4.68629a11.31372 11.31372 0 0 1 8-3.31371 11.31369 11.31369 0 0 1 11.31371 11.3137v15.742a20.94429 20.94429 0 0 1 -2.21114 9.36656 20.94425 20.94425 0 0 1 -18.73312 11.57774h-3.05574z"/><path d="m112 264 24 24-24 32-32-16z"/><path d="m288 352-22.0542 33.08105-25.9458-57.08105 16-32-48-16-16 40 24 16 15.82422 79.12079a100.64547 100.64547 0 0 0 42.86279 64.004h.00025a16 16 0 0 0 22.188-4.43757l55.12474-82.68722z"/></g><path d="m288 176a8 8 0 0 0 0-16h-8a8 8 0 0 0 0 16z"/><path d="m82.34277 418.34326-64 64 11.31446 11.31348 60.43457-60.43506 131.24609 46.32232 5.32422-15.0879-136-48a8.00108 8.00108 0 0 0 -8.31934 1.88716z"/><path d="m447.15527 398.6333-27.57715-13.78857a7.99934 7.99934 0 0 0 -3.57812-.84473h-40a7.99883 7.99883 0 0 0 -4.11621 1.14014l-9.93823 5.96289 19.14013-31.10303h25.02564l30.31055 15.15527 7.15624-14.31054-32-16a7.99934 7.99934 0 0 0 -3.57812-.84473h-18.395a47.55063 47.55063 0 0 0 2.477-11.09662l43.49609-21.74811 27.84668-13.92382 20.1377 13.4248 8.875-13.3125-24-16a7.99741 7.99741 0 0 0 -8.01562-.499l-25.14356 12.57171a101.96274 101.96274 0 0 0 -49.52539-42.13128l-2.75806-1.10321-5.168-25.83954 53.04126 7.577a7.99938 7.99938 0 0 0 7.78809-12.35693l-31.01849-46.52783-15.53614-100.98438 7.79-46.73486a8.00047 8.00047 0 0 0 -11.46972-8.4707l-47.09079 23.54589-221.6123 47.4878-54.58691-7.79785a7.99983 7.99983 0 0 0 -7.99219 12.03515l23.3164 38.86035 23.40235 109.21093-4.46021 26.75885-25.64526 32.05659a8.0006 8.0006 0 0 0 2.66895 12.15283l32 16a7.99865 7.99865 0 0 0 9.97851-2.35547l.60205-.80285 12.05713 3.01428 19.85943 29.78949-1.42872 1.71442-58.68169-22.00586a7.999 7.999 0 0 0 -6.38671.33545l-64 32 7.15624 14.31054 60.87888-30.43994 60.33985 22.62744 28.126 14.063 7.23242 36.16309 15.68946-3.1377-8-40a7.99993 7.99993 0 0 0 -4.26661-5.58642l-22.96606-11.483 28.93164-34.718 15.262 10.17462 15.17383 75.87109a107.93233 107.93233 0 0 0 46.27047 69.09229 23.83239 23.83239 0 0 0 13.2627 4.0376 24.25107 24.25107 0 0 0 4.75683-.47364 23.841 23.841 0 0 0 15.26172-10.22119l10.08301-15.12451h25.4414l5.78907 11.57764a7.99869 7.99869 0 0 0 7.15527 4.42236h32v-16h-27.05566l-5.78907-11.57764a7.99869 7.99869 0 0 0 -7.15527-4.42236h-19.719l17.377-26.06519 36.55782-21.93481h35.89551l30.31055 15.15527a7.99892 7.99892 0 0 0 8.37792-.75537l32-24-9.5996-12.7998zm-26.2207-98.04492-30.31982 15.15991a49.2729 49.2729 0 0 0 -4.50928-11.0437 47.65522 47.65522 0 0 0 -42.10547-24.70459v16a32.23285 32.23285 0 0 1 27.45117 49.12646l-22.043 35.81983-50.18164-31.36377 27.42969-41.145-13.3125-8.875-11.5625 17.34375-10.30713-6.8714 17.42676-23.23572 66.84915-22.2831 4.06152 1.62457a86.001 86.001 0 0 1 41.12305 34.44776zm-139.59082 46.97412-14.07031 21.10577-18.41114-40.50421 10.24024-20.481 4.89746 3.26488v25.05206h16v-14.38544l12.90625 8.60419zm-17.916-134.53369a7.99862 7.99862 0 0 0 -4.89746-4.61817l-14.53906-4.84619 18.86914-31.44873a8.006 8.006 0 0 0 1.13963-4.11572v-24h42.23438l4.61279 13.839-4.5044 4.50427 11.31446 11.31348 4.68652-4.687a3.31387 3.31387 0 0 1 5.65625 2.34373v15.74218a13.01421 13.01421 0 0 1 -1.36621 5.78907 12.87452 12.87452 0 0 1 -11.57813 7.15527h-3.05566v16h3.05566a28.75408 28.75408 0 0 0 24.05762-12.86389l21.61377 17.291 6.04346 30.217-54.77051 18.25628v-9.58691l13.65723-13.65674a8.00018 8.00018 0 0 0 -11.31446-11.31348l-13.65625 13.65674h-23.27052zm62.35743-60.97315-6.19532-18.58545a8.00071 8.00071 0 0 0 -7.58986-5.47021h-56a24.04166 24.04166 0 0 1 -22.62891-16h119.17969l6.167 86.3291-14.71778-11.77392v-15.2417a19.32147 19.32147 0 0 0 -18.21484-19.25782zm-229.96291-25.73193a8.0259 8.0259 0 0 0 -.96192-2.43994l-15.35254-25.5874 39.36035 5.623a7.97891 7.97891 0 0 0 2.80762-.09716l224-48a7.98443 7.98443 0 0 0 1.90234-.667l33.94825-16.97412-5.418 32.50342a8.00649 8.00649 0 0 0 -.01563 2.53174l16 104a8.00667 8.00667 0 0 0 1.251 3.22119l22.0752 33.1123-38.28711-5.46923a7.97949 7.97949 0 0 0 -1.68116-.0542l-7.47119-104.59619a7.99965 7.99965 0 0 0 -7.97948-7.43014h-136a8.00008 8.00008 0 0 0 -8 8 40.068 40.068 0 0 0 32 39.19507v22.58911l-22.86035 38.1001a8.00069 8.00069 0 0 0 4.33008 11.70508l20.48047 6.82664 4.57324 11.43316-104.19922 22.32857a7.98443 7.98443 0 0 0 -1.90234.667l-.19922.09954a15.97369 15.97369 0 0 0 -24.292 2.73786l-1.97363 2.96081-4.2998-4.29968c-.16748-.1673-.345-.32141-.52491-.47217l2.75928-16.55566a8.00788 8.00788 0 0 0 -.06933-2.9917zm13.78418 183.53516-17.17774-8.58889 20.23438-25.293 12.77343 12.77344zm33.0498 5.70361a8.00011 8.00011 0 0 0 -4.71582-3.32373l-8.52143-2.13037 12.98144-17.3086a8.00045 8.00045 0 0 0 -.74316-10.45654l-8.16285-8.16278 3.74878-5.62335 13.60352 13.60351-6.43652 19.30957a8.00042 8.00042 0 0 0 1.93261 8.18653l23.9253 23.92523-8.66626 10.39935zm42.38672.28992-4.4895 5.38714-19.40015-19.4002 4.873-14.61963a15.91255 15.91255 0 0 0 -3.86524-16.37256l-.69433-.69446 99.085-21.23261 4.02051 10.05109a7.99975 7.99975 0 0 0 7.42774 5.02881h24v13.333l-17.85962 23.81274-17.70288-11.802-.00635.00928a7.98089 7.98089 0 0 0 -1.90088-.94239l-48-16a8.00031 8.00031 0 0 0 -9.958 4.61817zm105.17578 154.39709a7.999 7.999 0 0 1 -11.09375 2.21875 92.03509 92.03509 0 0 1 -39.45605-58.9165l-15.82422-79.12061a7.99841 7.99841 0 0 0 -3.40723-5.0874l-18.59863-12.39941 10.78713-26.96973 32.09375 10.69775-11.875 23.75a7.99818 7.99818 0 0 0 -.12793 6.88819l40 88 14.5664-6.6211-12.21411-26.87079 15.27808-22.91735 50.42627 31.51648z"/></g></svg>