<svg height="512" viewBox="0 0 512 512" width="512" xmlns="http://www.w3.org/2000/svg"><g id="Flat"><path d="m496 16v174.86l-4.54-7.79-9.71 15.11-14.58008 22.67c-.07983.13-.16992.26-.25.39a95.35045 95.35045 0 0 0 -12.21 73.26l1.72 7.34a95.61983 95.61983 0 0 1 -14.86986 76.95c-.07007.10986-.14014.21-.21008.30994l3.91 20.51 13.23 69.49h-404.98998l13.25-69.46 3.91-20.47009c-.22-.30993-.43-.61987-.63995-.92993a.17574.17574 0 0 1 -.04-.05 95.63985 95.63985 0 0 1 -14.41-76.35l1.91-8.39a94.88566 94.88566 0 0 0 -12.41-72.22c-.08-.13-.16-.26-.24-.38l-14.58005-22.66992-9.71-15.11-4.54 7.79v-174.86z" fill="#fdc5ca"/><g fill="#fc979e"><path d="m64 116.84v4.59a69.97187 69.97187 0 0 1 -9.52 35.22l-24.23 41.53-9.71-15.11 20.12-34.48a54.016 54.016 0 0 0 7.34-27.16v-4.59a53.77916 53.77916 0 0 0 -24-44.84l8.88-13.31a69.76246 69.76246 0 0 1 31.12 58.15z"/><path d="m491.46 183.07-9.71 15.11-24.23-41.53a69.97248 69.97248 0 0 1 -9.52-35.22v-4.59a69.76246 69.76246 0 0 1 31.12-58.15l8.88 13.31a53.77916 53.77916 0 0 0 -24 44.84v4.59a53.95222 53.95222 0 0 0 7.34009 27.15z"/><path d="m457.49023 107.3501-13.67334 19.14258a80.17462 80.17462 0 0 1 -65.11132 33.50732h-68.07813a46.627 46.627 0 0 1 -46.62744-46.62744v-33.37256h-16v33.37256a46.627 46.627 0 0 1 -46.62744 46.62744h-68.07813a80.17462 80.17462 0 0 1 -65.11132-33.50732l-13.67334-19.14258-5.3 20.10717 5.95375 8.33521a96.20464 96.20464 0 0 0 78.13091 40.20752h68.07813a62.21548 62.21548 0 0 0 44.28418-18.34326 62.91674 62.91674 0 0 0 10.34326-13.59961 62.91674 62.91674 0 0 0 10.34326 13.59961 62.21548 62.21548 0 0 0 44.28418 18.34326h68.07813a96.20464 96.20464 0 0 0 78.13086-40.20752l6.04947-8.46922z"/><path d="m248 352h16v16h-16z"/><path d="m119.22217 246.96533 1.18847 3.56494 15.17872-5.06054-1.18848-3.56446a54.34148 54.34148 0 0 0 -31.42969-33.333 38.37131 38.37131 0 0 1 -22.19336-23.5376l-1.18847-3.56494-15.17872 5.06054 1.18848 3.56446a54.34148 54.34148 0 0 0 31.42969 33.333 38.37131 38.37131 0 0 1 22.19336 23.5376z"/><path d="m120 128h16v16h-16z"/><path d="m232 32a16.01833 16.01833 0 0 1 16 16v8a8 8 0 0 0 16 0v-8a16.01833 16.01833 0 0 1 16-16 8 8 0 0 0 0-16h-48a8 8 0 0 0 0 16z"/><path d="m386.91162 273.7749a129.6552 129.6552 0 0 1 -92.28418 38.2251 46.2752 46.2752 0 0 1 -30.62744-11.48352v-20.51648h-16v20.51648a46.2752 46.2752 0 0 1 -30.62744 11.48352 129.6552 129.6552 0 0 1 -92.28418-38.2251l-7.43164-7.43164-11.31348 11.31348 7.43164 7.43164c.18982.18982.38458.3728.57526.56152l-.0069.00684a181.99719 181.99719 0 0 1 53.65674 129.53906v64.8042h16v-64.8042a198.21183 198.21183 0 0 0 -15.1626-76.22851 199.90752 199.90752 0 0 0 -11.83557-23.90772 146.08722 146.08722 0 0 0 60.37073 12.94043 62.15827 62.15827 0 0 0 38.62744-13.31934 62.15827 62.15827 0 0 0 38.62744 13.31934 146.08742 146.08742 0 0 0 60.37073-12.94043 199.215 199.215 0 0 0 -26.99817 100.13623v64.8042h16v-64.8042a181.99719 181.99719 0 0 1 53.65674-129.53906l-.00684-.00684c.19068-.18872.38538-.3717.5752-.56152l7.43164-7.43164-11.31348-11.31348z"/><path d="m217.37256 264a62.15827 62.15827 0 0 0 38.62744-13.31934 62.15827 62.15827 0 0 0 38.62744 13.31934h26.74512a62.21751 62.21751 0 0 0 44.28418-18.34326l-11.31348-11.31348a46.32275 46.32275 0 0 1 -32.9707 13.65674h-26.74512a46.2749 46.2749 0 0 1 -30.62744-11.48352v-20.51648h-16v20.51648a46.2749 46.2749 0 0 1 -30.62744 11.48352h-26.74512a46.32275 46.32275 0 0 1 -32.9707-13.65674l-11.31348 11.31348a62.21751 62.21751 0 0 0 44.28418 18.34326z"/><path d="m217.37256 216a62.15827 62.15827 0 0 0 38.62744-13.31934 62.15827 62.15827 0 0 0 38.62744 13.31934h26.74512a62.21751 62.21751 0 0 0 44.28418-18.34326l-11.31348-11.31348a46.32275 46.32275 0 0 1 -32.9707 13.65674h-26.74512a46.2749 46.2749 0 0 1 -30.62744-11.48352v-20.51648h-16v20.51648a46.2749 46.2749 0 0 1 -30.62744 11.48352h-26.74512a46.32275 46.32275 0 0 1 -32.9707-13.65674l-11.31348 11.31348a62.21751 62.21751 0 0 0 44.28418 18.34326z"/><path d="m432.41064 181.46973-1.18847 3.56543a38.37173 38.37173 0 0 1 -22.19336 23.53711 54.3419 54.3419 0 0 0 -31.42969 33.33252l-1.18848 3.56494 15.17872 5.06054 1.18847-3.56543a38.37173 38.37173 0 0 1 22.19336-23.53711 54.3419 54.3419 0 0 0 31.42969-33.33252l1.18848-3.56494z"/><path d="m376 128h16v16h-16z"/><path d="m144 480-15.38 4.3999-6.02-21.0699a79.61726 79.61726 0 0 0 -33.85-45.34 112.02156 112.02156 0 0 1 -22-18.35l3.91-20.47009c-.22-.30993-.43-.61987-.63995-.92993.23.29.45.59.67.9a95.29408 95.29408 0 0 0 26.65 25.35 95.62834 95.62834 0 0 1 40.64 54.45z"/><path d="m445.26 399.61a111.01616 111.01616 0 0 1 -22.01 18.38 79.61726 79.61726 0 0 0 -33.85 45.34l-6.02 21.06994-15.38-4.39994 6.02-21.06006a95.62825 95.62825 0 0 1 40.63991-54.44994 95.30111 95.30111 0 0 0 26.68018-25.4c.06982-.1.13989-.2.22-.29993-.07007.10986-.14014.21-.21008.30994z"/></g><path d="m480 496h-448l8-40h432z" fill="#68737f"/></g></svg>