<?xml version="1.0" encoding="iso-8859-1"?>
<!-- Generator: Adobe Illustrator 19.0.0, SVG Export Plug-In . SVG Version: 6.00 Build 0)  -->
<svg version="1.1" id="Layer_1" xmlns="http://www.w3.org/2000/svg" xmlns:xlink="http://www.w3.org/1999/xlink" x="0px" y="0px"
	 viewBox="0 0 484.39 484.39" style="enable-background:new 0 0 484.39 484.39;" xml:space="preserve">
<g>
	<g>
		<g id="XMLID_30_">
			<g>
				<rect x="219.76" y="74.24" style="fill:#546A79;" width="68.685" height="45.859"/>
				<rect x="185.367" y="291.862" style="fill:#AFB6BB;" width="137.475" height="34.397"/>
				<polygon style="fill:#AFB6BB;" points="322.843,120.099 322.843,154.391 185.367,154.391 185.367,120.099 219.76,120.099 
					288.445,120.099 				"/>
				<rect x="185.367" y="154.391" style="fill:#43B05C;" width="137.475" height="137.471"/>
				<path style="fill:#E7ECED;" d="M432.445,158.247V484.39H249.607v-88.948H131.01c-54.357-19.766-9.883-59.298-39.532-79.065
					H51.945l19.767-98.831v-59.299C71.711,79.182,138.128,10,219.958,10h64.24C366.033,10,432.445,76.416,432.445,158.247z
					 M322.843,326.259v-34.398v-137.47v-34.292h-34.398V74.24H219.76v45.859h-34.393v34.292v137.471v34.398h137.476V326.259z"/>
			</g>
			<g>
				<path style="fill:#231F20;" d="M284.198,0h-64.24c-41.968,0-81.717,16.851-111.926,47.448
					c-29.438,29.817-46.321,70.201-46.321,110.798v58.309l-19.572,97.859c-0.588,2.938,0.173,5.984,2.072,8.301
					s4.737,3.66,7.733,3.66h36.179c5.012,4.478,5.149,10.266,4.279,22.371c-1.208,16.802-3.035,42.192,35.19,56.092
					c1.095,0.398,2.252,0.602,3.417,0.602h108.598v78.948h20V395.44c0-5.523-4.477-10-10-10H132.819
					c-22.384-8.631-21.616-19.298-20.468-35.259c0.924-12.85,2.19-30.448-15.327-42.126c-1.643-1.095-3.573-1.68-5.547-1.68H64.143
					l17.374-86.87c0.129-0.646,0.194-1.302,0.194-1.961v-59.299C81.711,83.309,145.02,20,219.958,20h64.24
					c76.229,0,138.247,62.017,138.247,138.247V484.39h20V158.247C442.445,70.989,371.455,0,284.198,0z"/>
				<path style="fill:#231F20;" d="M322.843,110.099h-24.398V74.24c0-5.523-4.477-10-10-10H219.76c-5.523,0-10,4.477-10,10v35.859
					h-24.393c-5.523,0-10,4.477-10,10v206.16c0,5.523,4.477,10,10,10h137.475c5.523,0,10-4.477,10-10v-206.16
					C332.843,114.576,328.366,110.099,322.843,110.099z M229.76,84.24h48.685v25.859H229.76V84.24z M312.843,130.099v14.292H195.367
					v-14.292H312.843z M312.843,164.391v117.471H195.367V164.391H312.843z M195.367,316.259v-14.398h117.475v14.398H195.367z"/>
				<path style="fill:#231F20;" d="M222.581,228.205c1.79,3.079,5.083,4.973,8.645,4.973h30.576l-11.201,26.084l18.377,7.892
					l17.19-40.029c1.327-3.09,1.012-6.64-0.838-9.448s-4.988-4.498-8.351-4.498h-28.558l14.327-25.181l-17.383-9.891l-22.831,40.126
					C220.773,221.327,220.791,225.126,222.581,228.205z"/>
			</g>
		</g>
	</g>
</g>
<g>
</g>
<g>
</g>
<g>
</g>
<g>
</g>
<g>
</g>
<g>
</g>
<g>
</g>
<g>
</g>
<g>
</g>
<g>
</g>
<g>
</g>
<g>
</g>
<g>
</g>
<g>
</g>
<g>
</g>
</svg>
