<?xml version="1.0" encoding="iso-8859-1"?>
<!-- Generator: Adobe Illustrator 19.0.0, SVG Export Plug-In . SVG Version: 6.00 Build 0)  -->
<svg version="1.1" id="Layer_1" xmlns="http://www.w3.org/2000/svg" xmlns:xlink="http://www.w3.org/1999/xlink" x="0px" y="0px"
	 viewBox="0 0 484.39 484.39" style="enable-background:new 0 0 484.39 484.39;" xml:space="preserve">
<g>
	<g id="XMLID_30_">
		<g>
			<rect x="294.081" y="89.065" style="fill:#546A79;" width="79.065" height="59.299"/>
			<rect x="294.081" y="182.955" style="fill:#546A79;" width="79.065" height="59.299"/>
			<polygon style="fill:#546A79;" points="373.146,276.844 373.146,336.143 294.081,336.143 294.081,311.435 294.081,276.844 			"/>
			<path style="fill:#E7ECED;" d="M294.081,336.143h79.065v-59.299h-79.065V336.143z M215.016,212.604v-29.649h-79.065v59.299
				h79.065V212.604z M294.081,242.253h79.065v-59.299h-79.065V242.253z M294.081,148.364h79.065V89.065h-79.065V148.364z
				 M432.445,158.247V484.39H249.607v-88.948H131.01c-54.357-19.767-9.883-59.299-39.533-79.065H51.945l19.766-98.831v-59.299
				C71.711,79.182,138.128,10,219.958,10h64.24C366.033,10,432.445,76.416,432.445,158.247z"/>
			<rect x="135.951" y="182.955" style="fill:#FFD248;" width="79.065" height="59.299"/>
		</g>
		<g>
			<path style="fill:#231F20;" d="M284.198,0h-64.24c-41.968,0-81.717,16.851-111.926,47.448
				c-29.438,29.817-46.321,70.201-46.321,110.798v58.309l-19.572,97.86c-0.588,2.938,0.173,5.984,2.072,8.301s4.737,3.66,7.733,3.66
				h36.178c5.012,4.478,5.15,10.266,4.279,22.371c-1.209,16.801-3.035,42.192,35.19,56.092c1.095,0.398,2.252,0.602,3.417,0.602
				h108.597v78.948h20v-88.948c0-5.523-4.477-10-10-10H132.819c-22.385-8.631-21.616-19.299-20.468-35.26
				c0.924-12.85,2.19-30.448-15.327-42.126c-1.643-1.095-3.573-1.68-5.547-1.68H64.143l17.374-86.87
				c0.129-0.646,0.194-1.302,0.194-1.961v-59.299C81.711,83.309,145.021,20,219.958,20h64.24
				c76.229,0,138.247,62.017,138.247,138.247V484.39h20V158.247C442.445,70.989,371.456,0,284.198,0z"/>
			<path style="fill:#231F20;" d="M373.146,79.065h-79.065c-5.523,0-10,4.477-10,10v19.649h-29.532c-5.523,0-10,4.477-10,10v83.89
				h-19.533v-19.649c0-5.523-4.477-10-10-10h-79.065c-5.523,0-10,4.477-10,10v59.299c0,5.523,4.477,10,10,10h79.065
				c5.523,0,10-4.477,10-10v-19.649h19.533v88.831c0,5.523,4.477,10,10,10h29.532v14.708c0,5.523,4.477,10,10,10h79.065
				c5.523,0,10-4.477,10-10v-59.299c0-5.523-4.477-10-10-10h-79.065c-5.523,0-10,4.477-10,10v24.591h-19.532v-78.831h19.532v19.649
				c0,5.523,4.477,10,10,10h79.065c5.523,0,10-4.477,10-10v-59.299c0-5.523-4.477-10-10-10h-79.065c-5.523,0-10,4.477-10,10v19.649
				h-19.532v-73.89h19.532v19.649c0,5.523,4.477,10,10,10h79.065c5.523,0,10-4.477,10-10V89.065
				C383.146,83.542,378.669,79.065,373.146,79.065z M205.016,232.253h-59.065v-39.299h59.065V232.253z M304.081,286.844h59.065
				v39.299h-59.065V286.844z M304.081,192.955h59.065v39.299h-59.065V192.955z M363.146,138.364h-59.065V99.065h59.065V138.364z"/>
			<rect x="160.659" y="202.604" style="fill:#231F20;" width="29.649" height="20"/>
			<rect x="318.789" y="202.604" style="fill:#231F20;" width="29.649" height="20"/>
			<rect x="318.789" y="108.714" style="fill:#231F20;" width="29.649" height="20"/>
			<rect x="318.789" y="296.494" style="fill:#231F20;" width="29.649" height="20"/>
		</g>
	</g>
</g>
<g>
</g>
<g>
</g>
<g>
</g>
<g>
</g>
<g>
</g>
<g>
</g>
<g>
</g>
<g>
</g>
<g>
</g>
<g>
</g>
<g>
</g>
<g>
</g>
<g>
</g>
<g>
</g>
<g>
</g>
</svg>
