<svg id="Layer_3" height="512" viewBox="0 0 64 64" width="512" xmlns="http://www.w3.org/2000/svg" data-name="Layer 3"><path d="m38 27c0 12.7-8.059 21-18 21s-18-8.3-18-21 8.059-25 18-25 18 12.3 18 25z" fill="#e2e7f6"/><circle cx="20" cy="29" fill="#f4a93c" r="11"/><path d="m9 29a10.974 10.974 0 0 0 4.182 8.622 10.988 10.988 0 0 0 9.636-19.244 10.964 10.964 0 0 0 -13.818 10.622z" fill="#f6b940"/><path d="m62 41c0 12.7-8.059 21-18 21s-18-8.3-18-21 8.059-25 18-25 18 12.3 18 25z" fill="#f2f2f2"/><circle cx="44" cy="43" fill="#f0ae42" r="11"/><path d="m33 43a10.974 10.974 0 0 0 4.182 8.622 10.988 10.988 0 0 0 9.636-19.244 10.964 10.964 0 0 0 -13.818 10.622z" fill="#f9d266"/><path d="m44 15a13.821 13.821 0 0 0 -6.678 1.8c-3.148-9.5-9.989-15.8-17.322-15.8-10.121 0-19 12.149-19 26 0 12.748 7.99 22 19 22a17.958 17.958 0 0 0 5.882-.994c2.355 8.994 9.254 14.994 18.118 14.994 11.01 0 19-9.252 19-22 0-13.851-8.879-26-19-26zm-24 32c-9.851 0-17-8.411-17-20 0-12.561 8.1-24 17-24 6.58 0 12.772 5.964 15.578 14.9a22.1 22.1 0 0 0 -5.106 5.238 12 12 0 1 0 -5.45 16.762c-.012.367-.022.734-.022 1.1a28.37 28.37 0 0 0 .454 5.037 15.949 15.949 0 0 1 -5.454.963zm5.192-9.478a9.991 9.991 0 1 1 -5.192-18.522 10.036 10.036 0 0 1 9.206 6.108 31.412 31.412 0 0 0 -4.014 12.414zm18.808 23.478c-9.851 0-17-8.411-17-20 0-12.561 8.1-24 17-24s17 11.439 17 24c0 11.589-7.149 20-17 20z"/><path d="m44 31a12 12 0 1 0 12 12 12.013 12.013 0 0 0 -12-12zm0 22a10 10 0 1 1 10-10 10.011 10.011 0 0 1 -10 10z"/></svg>