<svg id="Layer_3" height="512" viewBox="0 0 64 64" width="512" xmlns="http://www.w3.org/2000/svg" data-name="Layer 3"><path d="m2 6h42v56h-42z" fill="#e2e7f6"/><path d="m44 58h4v-56h-42v4h38z" fill="#c8cded"/><path d="m6 12h8v8h-8z" fill="#5e87ca"/><path d="m12 17v-5h-6v6h5a1 1 0 0 0 1-1z" fill="#78a0d4"/><path d="m6 24h8v8h-8z" fill="#5e87ca"/><path d="m6 36h8v8h-8z" fill="#5e87ca"/><path d="m6 48h8v8h-8z" fill="#5e87ca"/><path d="m9 20h2v4h-2z" fill="#4c6cb5"/><path d="m9 32h2v4h-2z" fill="#4c6cb5"/><path d="m9 44h2v4h-2z" fill="#4c6cb5"/><g fill="#c8cded"><path d="m17 17h24v2h-24z"/><path d="m21 13h20v2h-20z"/><path d="m17 29h24v2h-24z"/><path d="m21 25h20v2h-20z"/><path d="m17 41h23v2h-23z"/><path d="m21 37h20v2h-20z"/><path d="m17 53h13v2h-13z"/><path d="m21 49h11v2h-11z"/></g><path d="m12 29v-5h-6v6h5a1 1 0 0 0 1-1z" fill="#78a0d4"/><path d="m12 41v-5h-6v6h5a1 1 0 0 0 1-1z" fill="#78a0d4"/><path d="m12 53v-5h-6v6h5a1 1 0 0 0 1-1z" fill="#78a0d4"/><path d="m36 52 25.172-25.172a2.828 2.828 0 0 0 .828-2 2.828 2.828 0 0 0 -2.828-2.828 2.828 2.828 0 0 0 -2 .828l-25.172 25.172-4 8z" fill="#474747"/><path d="m51.379 27.672h4.243v5.657h-4.243z" fill="#ccc" transform="matrix(.707 -.707 .707 .707 -5.897 46.763)"/><path d="m51 29 2.293 2.293a1 1 0 0 0 1.414 0l1.293-1.293-3-3z" fill="#f2f2f2"/><path d="m63 24.829a3.828 3.828 0 0 0 -6.536-2.707l-7.464 7.464v-27.586a1 1 0 0 0 -1-1h-42a1 1 0 0 0 -1 1v3h-3a1 1 0 0 0 -1 1v56a1 1 0 0 0 1 1h42a1 1 0 0 0 1-1v-3h3a1 1 0 0 0 1-1v-17.586l12.878-12.878a3.8 3.8 0 0 0 1.122-2.707zm-27.592 26.349-5.172 2.586 2.586-5.171 17.178-17.179 2.586 2.586zm16.006-21.178 1.586-1.586 2.586 2.586-1.586 1.586zm-44.414-27h40v28.586l-2 2v-27.586a1 1 0 0 0 -1-1h-37zm-4 58v-54h40v28.586l-1.414 1.414h-20.586v2h18.586l-2 2h-20.586v2h18.586l-4.293 4.293a1.028 1.028 0 0 0 -.188.26l-.723 1.447h-9.382v2h8.382l-1 2h-11.382v2h10.382l-.277.553a1 1 0 0 0 1.342 1.347l8-4a1 1 0 0 0 .26-.188l6.293-6.298v14.586zm44-4h-2v-12.586l2-2zm13.464-30.878-3.464 3.464-2.586-2.586 3.464-3.464a1.829 1.829 0 1 1 2.586 2.586z"/><path d="m14 11h-8a1 1 0 0 0 -1 1v8a1 1 0 0 0 1 1h3v2h-3a1 1 0 0 0 -1 1v8a1 1 0 0 0 1 1h3v2h-3a1 1 0 0 0 -1 1v8a1 1 0 0 0 1 1h3v2h-3a1 1 0 0 0 -1 1v8a1 1 0 0 0 1 1h8a1 1 0 0 0 1-1v-8a1 1 0 0 0 -1-1h-3v-2h3a1 1 0 0 0 1-1v-8a1 1 0 0 0 -1-1h-3v-2h3a1 1 0 0 0 1-1v-8a1 1 0 0 0 -1-1h-3v-2h3a1 1 0 0 0 1-1v-8a1 1 0 0 0 -1-1zm-1 44h-6v-6h6zm0-12h-6v-6h6zm0-12h-6v-6h6zm0-12h-6v-6h6z"/><path d="m17 17h24v2h-24z"/><path d="m21 13h20v2h-20z"/><path d="m17 29h24v2h-24z"/><path d="m21 25h20v2h-20z"/></svg>