<svg height="512" viewBox="0 0 512 512" width="512" xmlns="http://www.w3.org/2000/svg"><g id="Flat"><path d="m56 496 16-88h368l16 88z" fill="#68737f"/><path d="m496 128.84v167.16l-39.3501-44.96-10.8599-12.42-.00977-.01a39.74978 39.74978 0 0 1 -16.83007 14.86q-1.20045.57-2.46 1.05a3.149 3.149 0 0 1 -.39013.15 1.90453 1.90453 0 0 1 -.21.09l6.71972 14.56 13.33008 28.89a109.31512 109.31512 0 0 1 9.85986 39.14q.19557 3.315.2002 6.65v10.75a109.25483 109.25483 0 0 1 -109.24989 109.25h-181.5a109.25483 109.25483 0 0 1 -109.25-109.25v-10.75q0-3.33.2-6.65a109.31566 109.31566 0 0 1 9.86011-39.14l13.33003-28.89v-.01l6.71972-14.55q-.14978-.06006-.2998-.12-1.40991-.54006-2.76-1.17a39.74694 39.74694 0 0 1 -16.83006-14.86l-.01.01-10.8599 12.41-39.3501 44.97v-167.16l15.93994-46.98a108.775 108.775 0 0 1 62.11011-65.86h323.90015a108.78457 108.78457 0 0 1 62.10986 65.86z" fill="#fdc5ca"/><g fill="#fc979e"><path d="m248 400h16v16h-16z"/><path d="m425.89014 254.76 6.71972 14.56c-.46.18-.92968.36-1.3999.53a55.96933 55.96933 0 0 1 -19.2998 3.45 55.3534 55.3534 0 0 1 -24.98-5.95l-37.5-18.75a56.045 56.045 0 0 1 -11.83008-7.94l-60.14008-52.62 10.54-12.04 60.14014 52.62a39.8028 39.8028 0 0 0 8.4497 5.67l37.5 18.75a39.45226 39.45226 0 0 0 17.82032 4.26 39.88568 39.88568 0 0 0 13.7998-2.48c.25977-.1.52-.19.78027-.3-.20023.09-.40039.16-.60009.24z"/><path d="m234.54 188.04-60.1499 52.62a55.73816 55.73816 0 0 1 -11.82007 7.94l-37.5 18.75a55.35572 55.35572 0 0 1 -24.98 5.95 56.0116 56.0116 0 0 1 -19.3-3.45c-.47-.17-.93994-.35-1.3999-.53v-.01l6.71972-14.55q-.14978-.06006-.2998-.12.23987.09.48.18a39.885 39.885 0 0 0 13.80005 2.48 39.44946 39.44946 0 0 0 17.81982-4.26l37.5-18.75a39.79179 39.79179 0 0 0 8.45-5.67l60.14008-52.62z"/><path d="m112 176h16v16h-16z"/><path d="m384 176h16v16h-16z"/><path d="m496 240-32.85929-79.80093a107.40928 107.40928 0 0 1 -7.26083-54.21907l-15.87988-1.98-6.5 51.99a39.83445 39.83445 0 0 0 3.91016 22.83l10.2998 20.6a39.89584 39.89584 0 0 1 .99024 33.62 41.5503 41.5503 0 0 1 -2.91016 5.58l50.20996 57.38z"/><path d="m16 240 32.85929-79.80093a107.40928 107.40928 0 0 0 7.26083-54.21907l15.87988-1.98 6.5 51.99a39.83445 39.83445 0 0 1 -3.91016 22.83l-10.29984 20.6a39.89584 39.89584 0 0 0 -.99024 33.62 41.5503 41.5503 0 0 0 2.91024 5.58l-50.21 57.38z"/><path d="m456 344v10.75a109.25483 109.25483 0 0 1 -109.25 109.25h-181.5a109.25483 109.25483 0 0 1 -109.25-109.25v-10.75q0-3.33.2-6.65a109.25941 109.25941 0 0 0 109.05 102.65h181.5a109.2582 109.2582 0 0 0 109.0498-102.65q.19557 3.315.2002 6.65z"/></g></g></svg>