<svg height="512" viewBox="0 0 512 512" width="512" xmlns="http://www.w3.org/2000/svg"><g id="Flat"><path d="m488 488v8h-464v-8q0-12.06006 1.14-24a253.43986 253.43986 0 0 1 53.39-133.07007 161.18013 161.18013 0 0 0 34.69-99.94993 161.04109 161.04109 0 0 0 -19.11-76.12012l-5.82-10.85988-25.71-48-15.91-29.68994a190.73124 190.73124 0 0 1 -18.43-50.31006h455.52a190.73109 190.73109 0 0 1 -18.42993 50.31006l-15.91015 29.68994-25.71 48-5.82 10.85986a161.25971 161.25971 0 0 0 15.58 176.07007 253.5485 253.5485 0 0 1 40.51 73.94019q1.92008 5.51988 3.58014 11.12988a252.99971 252.99971 0 0 1 9.29994 48q1.14 11.92493 1.14 24z" fill="#fdc5ca"/><path d="m488 488v8h-464v-8q0-12.06006 1.14-24a252.84322 252.84322 0 0 1 9.3-48h443.12006a252.99971 252.99971 0 0 1 9.29994 48q1.14 11.92493 1.14 24z" fill="#d4e4f0"/><path d="m488 488v8h-464v-8q0-12.06006 1.14-24h461.72q1.14 11.92493 1.14 24z" fill="#68737f"/><path d="m184 416h-16v-61.75879a407.78629 407.78629 0 0 0 -15.69238-112.04394l15.38476-4.39454a423.77939 423.77939 0 0 1 16.30762 116.43848z" fill="#fc979e"/><path d="m248 320h16v16h-16z" fill="#fc979e"/><path d="m483.76 16a190.73109 190.73109 0 0 1 -18.42993 50.31006l-15.91015 29.68994-25.71 48h-335.41992l-25.71-48-15.91-29.68994a190.73124 190.73124 0 0 1 -18.43-50.31006z" fill="#d4e4f0"/><path d="m483.76 16a190.73109 190.73109 0 0 1 -18.42993 50.31006l-15.91015 29.68994h-386.83992l-15.91-29.68994a190.73124 190.73124 0 0 1 -18.43-50.31006z" fill="#68737f"/><g fill="#fc979e"><path d="m344 416h-16v-61.75879a423.77939 423.77939 0 0 1 16.30762-116.43848l15.38476 4.39454a407.78629 407.78629 0 0 0 -15.69238 112.04394z"/><path d="m240 224h-9.35254a90.84566 90.84566 0 0 1 -77.50732-43.88379l13.71972-8.23242a74.76454 74.76454 0 0 0 63.7876 36.11621h9.35254z"/><path d="m281.35254 224h-9.35254v-16h9.35254a74.76454 74.76454 0 0 0 63.7876-36.11621l13.71972 8.23242a90.84566 90.84566 0 0 1 -77.50732 43.88379z"/></g><path d="m111.43164 72h-23.43164v-16h23.43164a127.72621 127.72621 0 0 0 90.91162-37.65723l11.31348 11.31446a143.62526 143.62526 0 0 1 -102.2251 42.34277z" fill="#4f5761"/><path d="m424 72h-23.43164a143.62526 143.62526 0 0 1 -102.2251-42.34277l11.31348-11.31446a127.72621 127.72621 0 0 0 90.91162 37.65723h23.43164z" fill="#4f5761"/></g></svg>