<?xml version="1.0" encoding="UTF-8"?>
<svg xmlns="http://www.w3.org/2000/svg" id="Layer_3" data-name="Layer 3" viewBox="0 0 64 64" width="512" height="512"><path d="M31,14.5V14A12,12,0,0,0,19,2h0A12,12,0,0,0,7,14v.5a18.4,18.4,0,0,1-2.342,8.758A22.532,22.532,0,0,0,2,34C2,45.046,9.611,54,19,54s17-8.954,17-20a22.532,22.532,0,0,0-2.658-10.741A18.4,18.4,0,0,1,31,14.5Z" style="fill:#4d8c28"/><path d="M56,22.5V22A12,12,0,0,0,44,10h0A12,12,0,0,0,32,22v.5a18.4,18.4,0,0,1-2.342,8.758A22.532,22.532,0,0,0,27,42c0,11.046,7.611,20,17,20s17-8.954,17-20a22.532,22.532,0,0,0-2.658-10.741A18.4,18.4,0,0,1,56,22.5Z" style="fill:#6bc13b"/><path d="M57,41a22.532,22.532,0,0,0-2.658-10.741A18.4,18.4,0,0,1,52,21.5V21a12,12,0,0,0-7.118-10.956C44.589,10.023,44.3,10,44,10A12,12,0,0,0,32,22v.5a18.4,18.4,0,0,1-2.342,8.758A22.532,22.532,0,0,0,27,42c0,8.78,4.816,16.221,11.5,18.911A14.528,14.528,0,0,0,40,61C49.389,61,57,52.046,57,41Z" style="fill:#7bdf45"/><path d="M44,10l.554.554A11.764,11.764,0,0,0,52.873,14h0a11.766,11.766,0,0,0,7.35-2.578L62,10,60.223,8.578A11.766,11.766,0,0,0,52.873,6h0a11.764,11.764,0,0,0-8.319,3.446Z" style="fill:#4d8c28"/><path d="M44,10h0a16.937,16.937,0,0,0-1.789-7.578L42,2h4a6.205,6.205,0,0,1-1.162,7.162Z" style="fill:#976947"/><path d="M53,44c0,6.627-4.029,10-9,10s-9-3.373-9-10,4.029-14,9-14S53,37.373,53,44Z" style="fill:#674025"/><path d="M44.123,30.011c-.041,0-.081-.011-.123-.011-4.971,0-9,7.373-9,14,0,4.427,1.8,7.394,4.479,8.881A10.4,10.4,0,0,0,41,53c4.971,0,9-3.373,9-10C50,37.839,47.552,32.243,44.123,30.011Z" style="fill:#775137"/><path d="M62.625,10.781a1,1,0,0,0,0-1.562L60.848,7.8A12.733,12.733,0,0,0,47.5,6.2a7.184,7.184,0,0,0-.6-4.642A1,1,0,0,0,46,1H42a1,1,0,0,0-.9,1.447l.211.423a15.977,15.977,0,0,1,1.628,6.183,13.01,13.01,0,0,0-10.777,7.595A15.455,15.455,0,0,1,32,14.5V14A13,13,0,0,0,6,14v.5a17.286,17.286,0,0,1-2.221,8.283A23.576,23.576,0,0,0,1,34C1,45.579,9.075,55,19,55a16.013,16.013,0,0,0,9.2-2.95C31.26,58.568,37.194,63,44,63c9.925,0,18-9.421,18-21a23.576,23.576,0,0,0-2.779-11.217A17.286,17.286,0,0,1,57,22.5V22a12.968,12.968,0,0,0-2.164-7.16A12.819,12.819,0,0,0,60.848,12.2ZM45.344,3a5.2,5.2,0,0,1-.509,4.582A18.152,18.152,0,0,0,43.578,3ZM19,53C10.178,53,3,44.477,3,34A21.569,21.569,0,0,1,5.537,23.736,19.25,19.25,0,0,0,8,14.5V14a11,11,0,0,1,22,0v.5a18.43,18.43,0,0,0,1.078,6.1A13.153,13.153,0,0,0,31,22v.5a17.286,17.286,0,0,1-2.221,8.283A23.576,23.576,0,0,0,26,42a23.921,23.921,0,0,0,1.411,8.148A14.1,14.1,0,0,1,19,53ZM57.463,31.736A21.569,21.569,0,0,1,60,42c0,10.477-7.178,19-16,19S28,52.477,28,42a21.569,21.569,0,0,1,2.537-10.264A19.25,19.25,0,0,0,33,22.5V22A11.005,11.005,0,0,1,43.606,11.02l.241.241a12.666,12.666,0,0,0,8.607,3.719A10.972,10.972,0,0,1,55,22v.5A19.25,19.25,0,0,0,57.463,31.736ZM59.6,10.641A10.8,10.8,0,0,1,52.873,13a10.693,10.693,0,0,1-7.456-3,10.694,10.694,0,0,1,7.456-3A10.8,10.8,0,0,1,59.6,9.359l.8.641Z"/><path d="M44,29c-5.724,0-10,7.919-10,15,0,6.683,3.925,11,10,11s10-4.317,10-11C54,36.919,49.724,29,44,29Zm0,24c-4.935,0-8-3.448-8-9,0-6.561,3.963-13,8-13s8,6.439,8,13C52,49.552,48.935,53,44,53Z"/></svg>
