<svg id="Layer_3" height="512" viewBox="0 0 64 64" width="512" xmlns="http://www.w3.org/2000/svg" data-name="Layer 3"><path d="m32 16a3.972 3.972 0 0 0 -3 1.38 3.958 3.958 0 0 0 -3.8-1.3 5.117 5.117 0 0 1 -.7-.582 5.122 5.122 0 0 1 -1.5-3.619v-3.879h3.879a5.122 5.122 0 0 1 3.621 1.5 5.122 5.122 0 0 1 1.5 3.621z" fill="#7bdf45"/><path d="m38.805 16.082a5.117 5.117 0 0 0 .7-.582 5.122 5.122 0 0 0 1.495-3.621v-3.879h-3.879a5.122 5.122 0 0 0 -3.621 1.5 5.122 5.122 0 0 0 -1.5 3.621v2.879a3.972 3.972 0 0 1 3 1.38 3.958 3.958 0 0 1 3.805-1.3z" fill="#6bc13b"/><path d="m51.828 21.172a3.948 3.948 0 0 0 -4.237-.9 4.01 4.01 0 0 0 -2.691-2.172l11.064-11.064a3.535 3.535 0 0 1 2.5-1.036 3.536 3.536 0 0 1 3.536 3.536 3.535 3.535 0 0 1 -1.036 2.5z" fill="#ccc"/><path d="m4 28h56a2 2 0 0 1 2 2v7a17 17 0 0 1 -17 17h-26a17 17 0 0 1 -17-17v-7a2 2 0 0 1 2-2z" fill="#f6b940"/><path d="m62 32-2.586 2.586a4.828 4.828 0 0 1 -3.414 1.414 4.828 4.828 0 0 1 -3.414-1.414l-1.172-1.172a4.828 4.828 0 0 0 -3.414-1.414 4.828 4.828 0 0 0 -3.414 1.414l-1.172 1.172a4.828 4.828 0 0 1 -3.414 1.414 4.828 4.828 0 0 1 -3.414-1.414l-1.172-1.172a4.828 4.828 0 0 0 -3.414-1.414 4.828 4.828 0 0 0 -3.414 1.414l-1.172 1.172a4.828 4.828 0 0 1 -3.414 1.414 4.828 4.828 0 0 1 -3.414-1.414l-1.172-1.172a4.828 4.828 0 0 0 -3.414-1.414 4.828 4.828 0 0 0 -3.414 1.414l-1.172 1.172a4.828 4.828 0 0 1 -3.414 1.414 4.828 4.828 0 0 1 -3.414-1.414l-2.586-2.586v-2a2 2 0 0 1 2-2h56a2 2 0 0 1 2 2z" fill="#fad85d"/><path d="m19 54v2a2 2 0 0 0 2 2h22a2 2 0 0 0 2-2v-2" fill="#d5883e"/><path d="m57 28a4 4 0 0 0 -4-4 3.974 3.974 0 0 0 -5.409-3.732 3.985 3.985 0 0 0 -5.83-1.583 3.967 3.967 0 0 0 -6.761-1.305 3.951 3.951 0 0 0 -6 0 3.967 3.967 0 0 0 -6.761 1.3 3.985 3.985 0 0 0 -5.83 1.583 3.974 3.974 0 0 0 -5.409 3.737 4 4 0 0 0 -4 4" fill="#e2e7f6"/><g fill="#c8cded"><path d="m31 20h2v2h-2z"/><path d="m26 22h2v2h-2z"/><path d="m19 23h2v2h-2z"/><path d="m43 23h2v2h-2z"/><path d="m36 23h2v2h-2z"/></g><path d="m60 27h-2.109a5.008 5.008 0 0 0 -3.975-3.916 4.933 4.933 0 0 0 -.757-1.829l8.513-8.512a4.535 4.535 0 1 0 -6.414-6.414l-10.705 10.7a5.052 5.052 0 0 0 -.553-.029 4.98 4.98 0 0 0 -1.79.33 5.021 5.021 0 0 0 -1.6-1.572 6.073 6.073 0 0 0 1.39-3.879v-3.879a1 1 0 0 0 -1-1h-3.879a6.077 6.077 0 0 0 -4.328 1.793 6.169 6.169 0 0 0 -.793.976 6.169 6.169 0 0 0 -.793-.976 6.077 6.077 0 0 0 -4.328-1.793h-3.879a1 1 0 0 0 -1 1v3.879a6.073 6.073 0 0 0 1.386 3.879 5.021 5.021 0 0 0 -1.6 1.572 4.986 4.986 0 0 0 -5.843 1.77 4.723 4.723 0 0 0 -.943-.1 5.009 5.009 0 0 0 -4.916 4.084 5.008 5.008 0 0 0 -3.975 3.916h-2.109a3 3 0 0 0 -3 3v7a18.006 18.006 0 0 0 17 17.949v1.051a3 3 0 0 0 3 3h22a3 3 0 0 0 3-3v-1.051a18.006 18.006 0 0 0 17-17.949v-7a3 3 0 0 0 -3-3zm-3.328-19.257a2.536 2.536 0 0 1 3.586 3.586l-8.514 8.512a4.951 4.951 0 0 0 -2.744-.841 4.723 4.723 0 0 0 -.943.1 4.979 4.979 0 0 0 -1.41-1.329zm-22.465 2.464a4.094 4.094 0 0 1 2.914-1.207h2.879v2.879a4.152 4.152 0 0 1 -1.206 2.913c-.089.089-.192.161-.288.241a4.763 4.763 0 0 0 -3.506.985 4.837 4.837 0 0 0 -2-.874v-2.023a4.153 4.153 0 0 1 1.207-2.914zm-9 4.586a4.153 4.153 0 0 1 -1.207-2.914v-2.879h2.879a4.094 4.094 0 0 1 2.914 1.207 4.153 4.153 0 0 1 1.207 2.914v2.023a4.837 4.837 0 0 0 -2 .874 4.763 4.763 0 0 0 -3.506-.985c-.094-.08-.194-.152-.287-.24zm-14.207 10.207a1 1 0 0 0 1-1 2.98 2.98 0 0 1 4.055-2.8 1 1 0 0 0 1.255-.5 2.985 2.985 0 0 1 4.369-1.191 1 1 0 0 0 1.505-.5 2.994 2.994 0 0 1 2.816-2.009 2.955 2.955 0 0 1 2.247 1.038 1.034 1.034 0 0 0 1.506 0 3.017 3.017 0 0 1 4.494 0 1.034 1.034 0 0 0 1.506 0 2.955 2.955 0 0 1 2.247-1.038 2.994 2.994 0 0 1 2.816 2.016 1 1 0 0 0 1.5.5 2.985 2.985 0 0 1 4.374 1.184 1 1 0 0 0 1.255.5 2.979 2.979 0 0 1 4.055 2.8 1 1 0 0 0 1 1 3 3 0 0 1 2.816 2h-47.632a3 3 0 0 1 2.816-2zm-7 4h56a1 1 0 0 1 1 1v1.586l-2.293 2.293a3.829 3.829 0 0 1 -5.414 0l-1.172-1.172a5.828 5.828 0 0 0 -8.242 0l-1.172 1.172a3.829 3.829 0 0 1 -5.414 0l-1.172-1.172a5.828 5.828 0 0 0 -8.242 0l-1.172 1.172a3.829 3.829 0 0 1 -5.414 0l-1.172-1.172a5.828 5.828 0 0 0 -8.242 0l-1.172 1.172a3.829 3.829 0 0 1 -5.414 0l-2.293-2.293v-1.586a1 1 0 0 1 1-1zm39 28h-22a1 1 0 0 1 -1-1v-1h24v1a1 1 0 0 1 -1 1zm2-4h-26a16.019 16.019 0 0 1 -16-16v-2.586l.879.879a5.828 5.828 0 0 0 8.242 0l1.172-1.172a3.829 3.829 0 0 1 5.414 0l1.172 1.172a5.828 5.828 0 0 0 8.242 0l1.172-1.172a3.829 3.829 0 0 1 5.414 0l1.172 1.172a5.828 5.828 0 0 0 8.242 0l1.172-1.172a3.829 3.829 0 0 1 5.414 0l1.172 1.172a5.828 5.828 0 0 0 8.242 0l.879-.879v2.586a16.019 16.019 0 0 1 -16 16z"/><path d="m31 20h2v2h-2z"/><path d="m26 22h2v2h-2z"/><path d="m19 23h2v2h-2z"/><path d="m43 23h2v2h-2z"/><path d="m36 23h2v2h-2z"/></svg>