<?xml version="1.0" encoding="iso-8859-1"?>
<!-- Generator: Adobe Illustrator 19.0.0, SVG Export Plug-In . SVG Version: 6.00 Build 0)  -->
<svg version="1.1" id="Layer_1" xmlns="http://www.w3.org/2000/svg" xmlns:xlink="http://www.w3.org/1999/xlink" x="0px" y="0px"
	 viewBox="0 0 484.391 484.391" style="enable-background:new 0 0 484.391 484.391;" xml:space="preserve">
<g>
	<g>
		<g id="XMLID_33_">
			<g>
				<path style="fill:#E7ECED;" d="M254.551,281.786c51.885,0,93.889-42.003,93.889-93.89c0-51.886-42.004-93.89-93.889-93.89
					c-51.887,0-93.891,42.003-93.891,93.89S202.664,281.786,254.551,281.786z M432.445,158.247V484.39H249.607v-88.949H131.012
					c-54.357-19.766-9.885-59.298-39.533-79.065H51.945l19.768-98.831v-59.299C71.713,79.182,138.133,10,219.959,10h64.24
					C366.033,10,432.445,76.416,432.445,158.247z"/>
				<path style="fill:#546A79;" d="M254.551,94.006c51.885,0,93.889,42.003,93.889,93.89s-42.004,93.89-93.889,93.89
					c-51.887,0-93.891-42.003-93.891-93.89C160.66,136.01,202.664,94.006,254.551,94.006z M313.847,187.896
					c0-32.714-26.59-59.299-59.297-59.299c-32.719,0-59.299,26.585-59.299,59.299s26.58,59.299,59.299,59.299
					C287.258,247.195,313.847,220.61,313.847,187.896z"/>
				<path style="fill:#E7ECED;" d="M254.551,128.597c32.707,0,59.297,26.585,59.297,59.299s-26.59,59.299-59.297,59.299
					c-32.719,0-59.299-26.585-59.299-59.299S221.832,128.597,254.551,128.597z M274.316,187.896
					c0-10.872-8.898-19.766-19.766-19.766c-10.869,0-19.768,8.894-19.768,19.766c0,10.873,8.898,19.767,19.768,19.767
					C265.418,207.663,274.316,198.769,274.316,187.896z"/>
				<path style="fill:#231F20;" d="M254.551,168.13c10.867,0,19.766,8.894,19.766,19.766c0,10.873-8.898,19.767-19.766,19.767
					c-10.869,0-19.768-8.894-19.768-19.767C234.783,177.024,243.681,168.13,254.551,168.13z"/>
			</g>
			<g>
				<path style="fill:#231F20;" d="M284.199,0h-64.24c-41.967,0-81.715,16.851-111.924,47.448
					C78.597,77.266,61.713,117.65,61.713,158.247v58.309l-19.573,97.86c-0.588,2.938,0.173,5.984,2.072,8.301s4.737,3.66,7.733,3.66
					h36.179c5.011,4.478,5.149,10.266,4.279,22.371c-1.208,16.802-3.034,42.192,35.191,56.092c1.095,0.398,2.252,0.602,3.417,0.602
					h108.596v78.949h20v-88.949c0-5.523-4.477-10-10-10H132.821c-22.386-8.631-21.617-19.299-20.47-35.26
					c0.924-12.85,2.189-30.448-15.326-42.125c-1.643-1.095-3.572-1.68-5.547-1.68H64.143l17.375-86.87
					c0.129-0.646,0.194-1.303,0.194-1.961v-59.299C81.713,83.309,145.021,20,219.959,20h64.24
					c76.23,0,138.246,62.017,138.246,138.247V484.39h20V158.247C442.445,70.989,371.456,0,284.199,0z"/>
				<path style="fill:#231F20;" d="M264.551,84.49V54.474h-20V84.49c-49.318,4.732-88.675,44.087-93.407,93.406h-30.017v20h30.017
					c4.732,49.319,44.089,88.674,93.407,93.406v30.016h20v-30.016c49.318-4.732,88.673-44.087,93.405-93.406h30.017v-20h-30.017
					C353.223,128.577,313.869,89.222,264.551,84.49z M254.551,271.786c-46.258,0-83.891-37.633-83.891-83.89
					s37.633-83.89,83.891-83.89c46.257,0,83.889,37.633,83.889,83.89S300.807,271.786,254.551,271.786z"/>
				<path style="fill:#231F20;" d="M254.551,118.597c-38.212,0-69.299,31.087-69.299,69.299s31.087,69.299,69.299,69.299
					c38.21,0,69.297-31.087,69.297-69.299S292.761,118.597,254.551,118.597z M254.551,237.195
					c-27.184,0-49.299-22.115-49.299-49.299s22.115-49.299,49.299-49.299c27.183,0,49.297,22.115,49.297,49.299
					S281.733,237.195,254.551,237.195z"/>
			</g>
		</g>
	</g>
</g>
<g>
</g>
<g>
</g>
<g>
</g>
<g>
</g>
<g>
</g>
<g>
</g>
<g>
</g>
<g>
</g>
<g>
</g>
<g>
</g>
<g>
</g>
<g>
</g>
<g>
</g>
<g>
</g>
<g>
</g>
</svg>
